<?xml version="1.0" standalone="no"?>
<!DOCTYPE svg PUBLIC "-//W3C//DTD SVG 20010904//EN"
 "http://www.w3.org/TR/2001/REC-SVG-20010904/DTD/svg10.dtd">
<svg version="1.0" xmlns="http://www.w3.org/2000/svg"
 width="1024.000000pt" height="1024.000000pt" viewBox="0 0 1024.000000 1024.000000"
 preserveAspectRatio="xMidYMid meet">
<metadata>
Created by potrace 1.14, written by Peter Selinger 2001-2017
</metadata>
<g transform="translate(0.000000,1024.000000) scale(0.100000,-0.100000)"
fill="#000000" stroke="none">
<path d="M0 9415 l0 -825 50 0 49 0 3 -102 3 -103 230 2 c127 1 284 2 350 3
l120 0 0 94 -1 94 29 6 c16 3 1064 6 2328 6 l2299 0 0 -70 0 -70 76 0 c120 0
114 -10 114 200 l0 180 110 0 110 0 0 95 0 95 195 0 c107 0 195 -3 195 -8 0
-4 -34 -6 -75 -4 l-74 4 -3 -256 c-2 -141 -1 -261 0 -266 2 -6 24 -10 48 -10
42 0 44 -1 44 -30 0 -29 -2 -30 -45 -30 l-45 0 0 -58 0 -59 188 -6 c103 -4
233 -7 290 -7 l102 0 0 -120 0 -121 -75 7 -75 7 0 -322 0 -321 -94 0 c-52 0
-97 -4 -100 -9 -3 -4 1 -17 9 -27 10 -13 14 -47 15 -111 l0 -93 85 0 85 0 0
-185 0 -185 84 0 84 0 7 -72 c4 -40 5 -95 3 -123 l-3 -50 -87 -3 -88 -3 -2
-322 -3 -322 -118 -3 -117 -3 2 -172 3 -172 40 -5 c73 -10 72 -23 -7 -98 -27
-24 -28 -29 -28 -129 l0 -103 -104 0 c-85 0 -105 -3 -110 -16 -3 -9 -6 -72 -6
-141 l0 -126 -207 7 c-114 4 -209 8 -210 10 -2 1 -6 25 -9 52 -4 36 -3 45 5
34 8 -11 11 3 11 58 0 54 3 72 14 72 7 0 17 -10 21 -22 7 -21 8 -20 14 12 4
19 4 43 -1 52 -4 9 -8 29 -8 44 0 15 -3 25 -6 21 -3 -3 -17 4 -30 16 -22 19
-24 27 -24 124 l0 103 -90 0 -90 0 0 65 c0 62 -1 65 -24 65 -16 0 -27 -7 -31
-20 -6 -18 -15 -20 -86 -20 l-79 0 0 229 c0 194 2 230 15 235 11 4 15 22 15
78 -1 118 13 112 -270 104 l-240 -7 0 88 c0 83 1 86 16 64 16 -22 19 -22 148
-17 72 2 150 8 174 11 23 4 63 4 87 0 l45 -6 0 -50 c0 -61 24 -69 35 -12 12
68 19 73 90 73 l65 0 0 80 0 80 -95 0 c-69 0 -95 3 -96 13 0 6 -1 35 -1 62 0
28 -2 38 -5 23 -4 -28 -5 -28 -84 -28 -72 0 -79 2 -79 20 0 11 -6 20 -12 20
-10 0 -10 2 0 8 7 5 -8 8 -35 8 l-48 -1 4 128 3 127 -111 0 -111 0 0 130 0
131 -92 -3 -93 -3 4 -350 c2 -193 1 -360 -3 -373 -4 -12 -14 -22 -23 -22 -8 0
-24 -11 -34 -24 -14 -18 -27 -23 -56 -21 -57 3 -83 20 -83 55 0 25 -3 29 -27
27 l-28 -2 -3 143 -3 142 -94 0 -95 0 0 104 0 103 -77 7 c-42 3 -92 6 -111 6
-19 0 -53 8 -74 17 l-38 17 0 98 0 98 -130 0 -130 0 -2 103 c-1 56 -2 134 -3
172 l0 70 -123 5 -122 5 0 -177 c0 -170 1 -178 20 -178 18 0 20 -8 22 -117 l3
-118 108 0 107 0 0 -104 0 -104 120 7 120 7 0 -106 0 -105 -62 -1 c-113 -2
-103 7 -106 -91 l-3 -88 -64 0 -64 0 -3 88 -3 87 -73 3 c-44 2 -79 -2 -87 -8
-10 -8 -13 -32 -10 -83 2 -40 4 -74 4 -77 1 -3 35 -4 76 -2 l75 4 0 -67 0 -67
-75 4 -74 3 -3 -90 c-3 -90 -3 -90 -30 -93 -27 -3 -28 -5 -28 -68 0 -57 2 -64
19 -64 11 0 22 -4 25 -8 5 -8 69 -1 127 13 23 6 27 3 33 -20 5 -18 12 -25 21
-21 10 3 15 -1 15 -12 0 -14 -11 -18 -60 -20 -40 -2 -67 2 -81 11 -15 11 -17
16 -7 20 7 2 10 7 6 11 -7 8 -48 -15 -48 -27 0 -4 3 -6 8 -4 8 6 7 -111 -2
-120 -3 -4 -6 -44 -6 -90 l0 -83 48 -2 c36 -1 39 -2 15 -5 l-33 -4 0 -70 c0
-39 -4 -69 -10 -69 -5 0 -10 9 -10 20 0 19 -4 20 -57 14 -32 -4 -59 -8 -61
-10 -8 -6 -21 -145 -16 -159 4 -10 26 -15 77 -17 l72 -3 3 -70 c2 -38 1 -88
-3 -111 l-6 -41 -72 -12 c-40 -7 -79 -14 -87 -15 -11 -1 -17 -21 -22 -76 -12
-118 -14 -120 -103 -120 l-75 0 0 -50 0 -50 -59 0 c-45 0 -68 -6 -95 -22 l-35
-23 -1 -78 0 -77 263 2 262 3 3 108 3 107 78 0 c43 0 92 3 109 6 l31 6 3 137
3 136 121 3 c145 3 143 1 146 142 l3 95 148 3 147 3 0 83 c0 46 3 104 6 130
l7 46 143 0 144 0 0 150 0 149 78 3 77 3 3 80 c2 43 8 85 14 92 7 9 39 13 99
13 l89 0 2 -242 3 -243 83 -3 82 -3 0 -124 0 -125 -127 -2 c-116 -2 -154 -3
-220 -7 -22 -1 -22 -5 -25 -118 l-3 -118 -45 -3 c-24 -2 -48 -8 -51 -14 -4 -7
-13 -7 -27 1 -11 6 -46 11 -77 11 -44 0 -56 -3 -52 -14 11 -28 -17 -36 -131
-36 l-114 0 4 -120 4 -120 -55 -2 c-31 -1 -81 0 -111 1 -90 4 -93 -2 -91 -212
l2 -174 -67 -6 c-37 -4 -72 -3 -78 0 -6 4 -33 9 -59 11 l-49 4 3 -157 c2 -86
6 -161 10 -166 3 -6 15 -9 25 -7 14 2 20 13 22 41 l3 37 114 0 c103 0 115 2
125 19 5 11 10 29 10 40 0 10 3 21 8 23 4 2 20 20 35 41 16 20 32 35 37 32 5
-3 15 1 22 9 9 8 25 12 41 9 29 -6 31 -2 27 50 -1 21 3 27 19 27 20 0 21 6 21
85 0 82 1 85 23 84 12 -1 59 0 104 1 l82 2 -1 114 c-1 78 -5 113 -13 112 -6
-2 -10 1 -10 7 0 5 8 10 17 10 9 1 15 -2 12 -7 -3 -4 33 -8 80 -8 l86 0 0 59
c0 44 4 60 16 65 26 10 62 7 66 -6 2 -7 3 -92 2 -188 -1 -96 -3 -214 -3 -262
l-1 -88 -68 0 -68 0 -17 -38 c-9 -21 -17 -58 -17 -81 0 -31 -5 -43 -17 -48
-10 -4 -20 -10 -23 -14 -8 -11 -125 -29 -192 -29 l-58 0 0 -49 c0 -46 -1 -49
-31 -55 -17 -3 -47 -6 -65 -6 -19 0 -34 -5 -34 -11 0 -5 -4 -7 -10 -4 -5 3
-10 2 -10 -4 0 -6 -11 -6 -32 0 -18 5 -48 9 -67 9 l-33 0 3 -185 4 -185 127 0
126 0 4 56 c1 31 -1 58 -6 61 -19 12 23 23 87 23 82 0 97 11 97 74 0 38 4 48
29 65 23 16 29 30 34 72 6 50 12 67 21 58 2 -2 7 -100 10 -216 l7 -213 -36 0
-35 0 0 -49 c0 -43 2 -49 19 -44 11 3 28 -4 40 -16 12 -12 33 -22 49 -22 l27
-1 -30 -8 c-16 -4 -85 -8 -152 -9 l-123 -1 0 -105 0 -105 -75 0 -75 0 0 -98 0
-99 -127 -6 c-71 -4 -163 -7 -205 -7 -90 0 -87 4 -80 -116 3 -44 1 -124 -3
-177 -7 -94 -8 -97 -31 -97 -23 0 -24 -2 -24 -79 l0 -78 31 -7 c50 -10 25 -21
-38 -17 -46 3 -53 6 -33 12 21 6 19 7 -12 6 -21 -1 -38 -4 -38 -7 0 -3 -14 -6
-30 -7 l-30 -2 0 109 c0 104 -11 145 -26 98 -4 -13 -2 -24 5 -26 15 -5 15
-142 0 -142 -6 0 -9 -9 -6 -20 3 -13 0 -20 -8 -20 -7 0 -15 -4 -17 -8 -1 -5
-19 -12 -38 -16 -34 -6 -34 -6 -12 9 17 13 21 22 16 43 -10 40 -13 43 -34 32
-11 -6 -29 -14 -40 -20 -11 -5 -21 -6 -25 -1 -7 12 5 41 17 41 5 0 6 6 2 13
-6 9 -5 9 7 0 14 -11 16 -7 15 37 0 30 -6 52 -13 55 -9 3 -13 35 -13 115 l0
110 71 0 c59 0 70 -3 65 -15 -3 -8 -2 -15 2 -15 11 0 38 20 27 20 -6 0 -9 65
-7 180 l3 180 -80 0 -79 0 1 293 c1 161 -2 298 -7 305 -5 8 -40 12 -112 12
l-104 0 0 85 c0 112 -18 110 -22 -3 l-3 -87 -82 -3 -83 -3 0 -200 c0 -110 -4
-198 -8 -195 -4 2 -14 1 -22 -4 -10 -6 -15 -37 -18 -109 l-4 -101 -54 0 c-30
0 -54 5 -54 10 0 6 -7 10 -15 10 -13 0 -15 -26 -15 -170 l0 -170 110 0 110 0
0 -100 0 -100 -100 0 -100 0 0 -135 0 -135 100 0 100 0 0 -65 0 -65 54 0 c30
0 58 -5 61 -11 4 -6 9 -46 12 -90 l6 -79 -49 7 c-27 3 -51 10 -52 15 -2 4 -8
6 -13 2 -5 -3 -9 -52 -9 -110 l0 -104 105 0 c58 0 108 0 113 0 4 0 9 -35 12
-77 l5 -78 70 0 70 0 5 -130 c3 -71 7 -109 8 -82 l2 47 70 0 70 0 0 90 0 90
105 0 104 0 3 87 3 88 127 -4 127 -3 3 113 3 114 152 3 151 3 4 93 c4 126 4
126 139 126 63 0 110 4 114 10 4 6 21 8 40 4 40 -7 49 5 30 42 -26 51 -22 54
65 54 l80 0 0 89 0 88 88 6 c48 3 92 2 97 -3 6 -4 51 -11 102 -14 l92 -7 3
113 3 113 222 3 222 2 3 83 3 82 103 3 102 3 0 84 0 85 118 0 117 0 0 172 0
173 123 3 122 3 0 249 0 250 183 0 c100 0 187 4 193 8 6 4 10 18 10 32 0 14 1
152 2 307 l2 283 173 2 172 3 3 143 3 142 104 0 105 0 0 120 0 120 150 0 149
0 3 128 3 127 80 3 c44 2 82 8 83 13 2 5 14 9 27 9 12 0 37 3 54 6 l31 6 0
134 0 134 178 -2 177 -3 3 -85 c2 -47 0 -104 -3 -127 l-6 -43 -104 0 c-57 0
-106 -4 -109 -8 -3 -5 -6 -96 -7 -202 -1 -107 -3 -200 -6 -207 -4 -10 -34 -13
-114 -13 l-108 0 6 -65 6 -65 -107 0 -106 0 0 -127 c0 -71 -3 -273 -7 -450
l-6 -323 101 0 102 0 0 395 0 395 114 0 c95 0 115 -3 120 -16 3 -9 6 -213 6
-454 l0 -437 -24 -1 c-13 0 -67 -3 -120 -7 l-96 -7 0 -88 c0 -49 -2 -94 -5
-102 -4 -10 -29 -12 -108 -10 -125 4 -157 -5 -157 -48 0 -23 -4 -30 -20 -30
-11 0 -20 -5 -20 -10 0 -6 16 -10 38 -8 32 3 37 0 40 -20 2 -13 -2 -22 -10
-22 -10 0 -9 -3 2 -10 13 -8 12 -10 -2 -10 -10 0 -18 -7 -18 -15 0 -8 -4 -15
-10 -15 -5 0 -10 -8 -10 -19 0 -35 -24 -77 -42 -73 -17 3 -18 -13 -18 -241 l0
-244 -107 -6 c-58 -4 -127 -7 -153 -7 l-47 0 -7 213 c-4 117 -4 225 -1 240 7
27 8 27 86 27 55 0 81 4 84 13 8 21 10 307 3 307 -5 0 -8 45 -8 100 l0 101
-82 -3 -83 -3 -1 -85 c-1 -47 -2 -158 -3 -246 l-1 -162 -175 -7 -175 -7 0
-114 0 -114 90 0 91 0 -3 -122 -3 -123 -85 -5 -85 -5 -5 -50 -5 -50 -92 -3
-93 -3 0 -88 0 -88 -115 -5 c-63 -2 -117 -7 -121 -10 -3 -4 -8 -177 -11 -387
l-6 -380 -121 -3 -121 -3 -3 -166 -2 -166 -38 -7 c-20 -3 -65 -6 -98 -6 -61 0
-62 0 -68 -31 -3 -17 -6 -49 -6 -70 l0 -39 -65 0 -65 0 0 -100 0 -100 -30 0
c-22 0 -30 -5 -30 -18 0 -27 -20 -42 -57 -42 l-33 0 -2 -57 c-1 -32 -1 -70 0
-85 2 -26 0 -27 -56 -30 l-57 -3 -3 -96 -3 -96 -67 -7 c-37 -3 -95 -6 -129 -6
l-62 0 -3 -87 -3 -88 -82 0 c-45 0 -85 -4 -89 -8 -5 -4 -7 -45 -5 -91 2 -73 0
-84 -16 -90 -14 -6 -34 10 -91 70 -42 44 -71 82 -68 90 4 10 -4 14 -27 14 -40
1 -64 18 -69 50 -3 24 -7 25 -82 28 l-79 3 6 39 c4 32 2 39 -14 43 -14 4 -19
14 -19 41 l0 36 -91 0 -90 0 2 95 c1 53 0 98 -3 100 -3 3 -65 7 -138 10 -92 3
-136 9 -142 17 -4 7 -8 32 -8 56 l0 42 -120 0 c-69 0 -120 4 -120 9 0 6 -24
11 -52 13 l-53 3 -3 92 c-3 91 -3 93 -27 93 -25 0 -25 -1 -25 -84 0 -104 -7
-143 -29 -148 -9 -3 -59 -2 -113 0 l-96 4 -6 32 c-6 31 -7 31 -73 34 -37 1
-70 6 -73 10 -18 25 -60 -1 -60 -37 0 -20 -6 -21 -90 -21 l-90 0 0 54 c0 52
-1 55 -27 58 -24 3 -28 8 -31 41 l-3 37 -81 0 -81 0 5 81 c3 54 9 84 19 89 25
16 -2 25 -86 29 l-84 3 -3 32 c-3 27 -7 31 -38 34 -19 2 -38 9 -42 15 -5 7 -5
38 -2 70 l7 57 -154 1 c-153 1 -205 7 -202 25 13 74 14 106 5 100 -11 -7 -22
15 -22 45 0 10 -6 19 -12 19 -10 0 -10 2 -1 8 7 5 11 21 9 40 -4 29 -2 32 30
38 l35 6 -2 59 c-1 34 -7 59 -13 59 -6 0 -5 4 2 9 21 13 -10 21 -55 15 -70 -9
-113 -24 -113 -40 0 -11 -6 -14 -16 -10 -9 3 -22 6 -29 6 -7 0 -18 14 -24 30
-5 17 -13 30 -16 30 -3 0 -3 -5 0 -10 4 -6 -23 -10 -73 -10 l-80 0 -6 93 c-10
147 -9 142 -42 144 l-29 2 30 -9 c23 -6 25 -8 8 -9 -41 -2 -53 9 -53 51 0 74
-6 78 -130 78 l-110 0 0 80 0 80 -135 0 -135 0 0 190 c0 122 -4 190 -10 190
-6 0 -20 -6 -31 -12 -17 -10 -23 -10 -26 0 -3 6 -21 12 -40 12 -50 0 -107 27
-127 60 -21 36 -22 100 -1 100 8 0 15 7 15 15 0 10 -10 15 -29 15 l-30 0 -3
91 -3 91 105 -7 c58 -3 118 -3 133 0 26 7 27 9 27 81 l0 74 155 0 155 0 0 84
c0 79 -2 85 -22 92 -22 7 -22 7 -3 14 11 4 33 3 48 -3 15 -5 170 -10 345 -11
l317 -1 3 88 3 87 74 0 74 0 3 73 3 72 218 3 218 2 12 29 c9 20 11 108 7 327
l-5 299 -90 2 c-49 1 -93 2 -97 2 -5 1 -8 172 -8 381 l0 380 95 0 94 0 3 133
3 132 105 0 105 0 2 65 c0 36 1 122 2 192 l1 127 88 3 87 3 3 65 c1 36 -1 70
-6 77 -5 8 -59 12 -180 14 l-172 2 0 74 c0 47 4 72 10 68 6 -3 10 -1 10 4 0 7
33 11 90 11 l90 0 0 104 0 105 -52 3 -53 3 -3 78 -3 77 -34 0 c-18 0 -45 4
-59 10 l-26 10 0 135 0 135 -105 0 -105 0 0 -150 c0 -127 2 -150 15 -150 11 0
15 -12 15 -50 0 -60 14 -70 99 -70 95 0 91 6 91 -141 l0 -129 -100 0 -100 0 0
-75 c0 -61 -3 -75 -16 -75 -11 0 -14 -8 -12 -27 2 -23 8 -29 36 -31 l32 -3 0
-105 0 -104 -55 0 -55 0 0 -50 0 -49 -67 -3 -68 -3 -3 -198 -2 -197 -108 1
c-67 1 -117 -3 -130 -10 -13 -7 -37 -9 -57 -5 -40 7 -38 11 -39 -103 -1 -33 3
-59 8 -56 4 3 6 -16 5 -43 -4 -45 -2 -49 19 -52 55 -8 57 -17 57 -277 0 -132
-2 -292 -3 -357 l-2 -116 -57 -4 c-32 -2 -59 0 -61 4 -2 5 -75 8 -162 8 -186
0 -170 15 -170 -157 l0 -111 -57 -6 c-32 -3 -95 -8 -140 -12 l-83 -6 0 -53 c0
-45 -3 -55 -20 -60 -17 -5 -20 -15 -20 -61 l0 -54 -85 0 -85 0 0 -40 c0 -52
-16 -60 -137 -64 -54 -2 -106 -4 -115 -5 -15 -1 -18 -11 -18 -71 l0 -70 -40 0
-40 0 0 -45 0 -45 -48 0 c-27 0 -90 3 -140 6 l-92 7 0 216 c-1 330 -14 399
-73 383 -17 -4 -18 -3 -6 15 21 35 5 53 -46 53 l-45 0 0 45 c0 29 4 45 13 45
6 0 4 5 -5 11 -11 6 -18 22 -18 39 l0 30 -104 0 c-85 0 -105 3 -110 16 -3 9
-6 56 -6 105 0 58 -4 89 -11 89 -8 0 -9 -19 -4 -60 5 -41 4 -60 -4 -60 -12 0
-17 -3534 -5 -3564 5 -13 23 -16 89 -16 94 0 102 -7 90 -74 l-7 -35 -79 0
c-43 0 -83 -3 -89 -6 -6 -4 -10 -179 -10 -496 l0 -489 590 0 590 0 0 105 c0
77 -3 105 -12 106 -7 0 -83 2 -169 4 -194 4 -234 13 -243 56 -15 75 -20 72
117 65 67 -3 184 -6 260 -5 l137 0 1 -58 c1 -32 1 -64 -1 -72 -1 -7 1 -24 4
-37 6 -22 12 -24 66 -24 l60 0 0 -70 0 -70 1485 0 1485 0 0 69 c0 78 3 81 96
81 61 0 64 -5 64 -91 l0 -59 390 0 390 0 0 64 0 65 -47 3 -48 3 -3 72 -3 73
-109 0 -110 0 0 60 0 60 104 0 105 0 3 47 c3 44 5 48 32 53 24 4 30 11 33 35
8 78 14 93 36 99 12 3 97 6 190 6 l167 0 0 58 c0 32 4 62 9 68 6 5 11 34 13
64 2 40 7 55 18 56 8 1 54 2 103 2 l87 2 0 95 0 95 108 0 109 0 6 137 c4 75 7
192 7 260 0 116 1 123 20 124 48 3 57 11 35 29 -8 7 -15 23 -15 36 0 24 1 24
100 24 73 0 100 3 101 13 4 31 6 55 7 95 l2 42 59 0 c33 0 71 4 85 10 23 8 26
15 26 55 0 25 4 45 9 45 5 0 8 11 7 24 0 13 -4 22 -8 19 -5 -2 -8 20 -8 50 0
30 -3 88 -6 130 l-7 77 102 0 c74 0 101 3 102 13 0 6 0 55 -1 107 -1 53 2 103
5 111 4 10 20 16 43 17 20 1 52 4 70 6 17 3 32 0 32 -5 0 -5 43 -9 95 -9 l94
0 3 123 3 122 48 3 c26 2 47 7 47 12 0 5 46 11 103 12 l102 3 5 45 c5 44 6 45
43 48 42 4 39 -7 41 142 l1 95 45 3 45 3 -1 42 c-1 34 -6 44 -25 54 -13 7 -31
13 -40 13 -12 0 -18 11 -21 40 l-4 40 48 0 48 0 0 85 c0 49 4 86 10 86 6 1 13
3 18 4 4 1 22 6 39 10 19 4 30 12 26 18 -3 5 -1 7 4 4 6 -4 27 0 47 8 19 8 46
15 60 15 16 0 27 7 31 20 6 18 24 25 49 21 5 -1 13 3 17 10 4 7 18 13 31 14
19 1 23 8 26 42 3 44 31 67 69 57 19 -5 20 2 26 117 4 67 7 178 7 246 l0 123
150 0 150 0 0 -69 0 -69 185 -7 c102 -4 188 -6 190 -4 7 7 13 62 14 117 l1 52
70 0 70 0 0 58 c0 111 7 127 66 166 30 20 58 36 63 36 21 0 31 42 31 131 l0
92 -52 -7 c-29 -3 -63 -6 -75 -6 -22 0 -23 -3 -23 -102 0 -57 -4 -108 -8 -114
-4 -6 -43 -19 -87 -29 -57 -14 -85 -26 -98 -42 -10 -13 -24 -29 -31 -36 -6 -6
-26 -33 -43 -58 -18 -25 -48 -60 -68 -78 -35 -31 -39 -32 -117 -29 l-80 3 1
118 c1 65 5 125 8 133 3 8 19 14 38 14 38 0 53 14 61 61 4 19 19 51 35 71 l29
37 0 575 1 576 47 1 c157 2 240 7 260 18 18 10 22 20 22 60 0 50 9 61 51 61
17 0 19 8 19 100 l0 100 188 2 187 3 3 78 3 77 49 0 c38 0 50 4 50 15 0 9 -9
15 -22 15 -57 0 -68 10 -68 56 l0 44 -75 0 -74 0 -3 98 -3 97 -222 3 -223 2 0
115 0 115 -65 0 c-62 0 -65 1 -65 24 0 13 -3 38 -6 55 -6 30 -8 31 -60 31
l-54 0 0 45 0 46 -78 -3 -77 -3 -3 -72 -3 -73 76 0 76 0 -3 -87 -3 -88 -122
-3 -123 -3 0 56 0 55 -75 0 c-58 0 -77 4 -81 15 -4 8 -11 15 -17 15 -6 0 -8
-40 -4 -120 l5 -120 -41 0 c-42 0 -42 0 -42 37 l0 38 -72 3 -73 3 0 -46 0 -45
-60 0 -60 0 0 425 0 425 -130 0 -130 0 0 336 c0 327 -1 336 -20 341 -17 4 -20
14 -20 54 l0 49 -80 0 c-76 0 -82 2 -126 35 -25 19 -52 35 -60 35 -10 0 -14
14 -14 54 0 30 -4 58 -10 61 -6 3 -10 48 -10 99 l0 93 803 6 c441 4 811 8 822
10 18 4 20 13 23 110 l3 107 144 0 145 0 1 93 c1 50 1 95 0 100 0 4 278 7 619
7 l620 0 0 610 0 610 -5120 0 -5120 0 0 -825z m6630 -695 l0 -90 -45 0 c-43 0
-45 1 -45 29 0 15 -3 56 -6 90 l-7 61 52 0 51 0 0 -90z m495 -494 c19 -15 19
-15 -12 -16 -30 0 -33 3 -33 32 0 28 2 30 13 15 6 -9 21 -23 32 -31z m-75
-151 c0 -47 -3 -85 -7 -86 -5 0 -45 -4 -90 -7 l-83 -7 0 92 0 93 90 0 90 0 0
-85z m1208 -1573 l3 -83 117 3 117 3 1 -57 2 -58 -114 0 -114 0 0 41 0 41 -77
-8 c-43 -4 -98 -8 -123 -9 l-45 0 -3 70 c-2 39 0 84 3 102 l6 32 77 4 c42 2
93 3 112 3 l35 -1 3 -83z m-3821 -124 c-3 -8 -6 -5 -6 6 -1 11 2 17 5 13 3 -3
4 -12 1 -19z m17 -24 c26 -10 18 -24 -14 -24 -29 0 -38 9 -23 23 8 9 17 9 37
1z m-434 -144 l0 -80 -95 0 -95 0 0 -80 0 -80 -67 0 c-38 0 -75 5 -83 11 -13
10 -13 10 0 6 12 -4 15 2 12 27 -3 28 -7 31 -40 34 -34 2 -63 23 -42 30 6 2
10 13 10 24 0 17 5 20 35 16 l35 -4 0 88 0 88 165 0 165 0 0 -80z m4840 -10
l0 -90 -42 0 c-40 0 -46 4 -80 51 -29 38 -38 60 -38 90 l0 39 80 0 80 0 0 -90z
m-5310 -150 c0 -5 -7 -10 -15 -10 -8 0 -15 5 -15 10 0 6 7 10 15 10 8 0 15 -4
15 -10z m118 -37 c-2 -12 -14 -19 -36 -21 -27 -3 -32 0 -32 17 0 17 6 21 36
21 28 0 35 -3 32 -17z m-114 -8 c11 -8 16 -18 13 -22 -4 -3 -13 1 -20 9 -6 9
-21 18 -32 21 l-20 5 20 1 c11 0 29 -6 39 -14z m-24 -25 c0 -5 -2 -10 -4 -10
-3 0 -8 5 -11 10 -3 6 -1 10 4 10 6 0 11 -4 11 -10z m-1 -372 c0 -13 -3 -17
-6 -10 -2 6 -14 12 -26 12 -12 0 -29 5 -37 10 -11 7 -4 10 28 10 37 0 42 -3
41 -22z m-22 -14 c-3 -3 -12 -4 -19 -1 -8 3 -5 6 6 6 11 1 17 -2 13 -5z
m-1490 -56 c-3 -8 -6 -5 -6 6 -1 11 2 17 5 13 3 -3 4 -12 1 -19z m1347 -187
c4 -5 -3 -7 -14 -4 -23 6 -26 13 -6 13 8 0 17 -4 20 -9z m2346 -116 c0 -24 -5
-35 -15 -35 -8 0 -15 9 -15 20 0 11 5 20 10 20 6 0 10 7 10 15 0 8 2 15 5 15
3 0 5 -16 5 -35z m-758 -301 c2 -86 1 -157 -2 -159 -3 -1 -30 0 -61 2 -52 5
-57 8 -62 32 -4 20 -15 29 -49 39 -56 17 -78 38 -78 74 0 23 -4 28 -24 28 -13
0 -38 3 -55 6 -31 6 -31 7 -31 70 l0 64 180 0 179 0 3 -156z m-2825 124 c-3
-8 -6 -5 -6 6 -1 11 2 17 5 13 3 -3 4 -12 1 -19z m3 -202 c0 -27 -20 -39 -41
-25 -11 8 -9 9 6 7 14 -2 21 3 23 20 4 29 12 28 12 -2z m-50 -332 l0 -55 -42
3 -43 3 -5 53 -6 52 48 0 48 0 0 -56z m-100 -244 c0 -22 5 -40 10 -40 6 0 10
-37 10 -90 l0 -90 -27 0 c-16 0 -38 3 -50 6 -19 5 -20 8 -8 20 7 8 22 14 33
14 32 0 37 63 17 193 -3 15 0 27 5 27 6 0 10 -18 10 -40z m6628 -189 c34 -29
27 -41 -23 -41 -46 0 -53 7 -35 41 13 24 29 24 58 0z m-4629 -166 c-1 -81 -6
-69 -11 27 -2 37 0 62 4 55 4 -6 7 -43 7 -82z m-72 -42 c-2 -16 -4 -3 -4 27 0
30 2 43 4 28 2 -16 2 -40 0 -55z m3430 -165 c-3 -8 -6 -5 -6 6 -1 11 2 17 5
13 3 -3 4 -12 1 -19z m-6475 -32 c-3 -6 -5 -25 -3 -43 1 -18 -5 -43 -13 -55
-15 -21 -16 -19 -16 44 0 60 2 67 19 65 11 0 17 -6 13 -11z m6378 -386 c0 -5
-2 -10 -4 -10 -3 0 -8 5 -11 10 -3 6 -1 10 4 10 6 0 11 -4 11 -10z m210 -49
c0 -35 -3 -39 -30 -43 -38 -6 -40 -3 -40 44 0 37 1 38 35 38 34 0 35 -1 35
-39z m-7130 -301 c0 -37 -2 -40 -27 -40 -23 0 -31 7 -45 40 l-17 40 45 0 44 0
0 -40z m6560 -12 c0 -5 -35 -8 -77 -8 -43 0 -73 4 -66 8 15 9 143 9 143 0z m0
-123 c0 -63 -4 -105 -10 -105 -5 0 -10 -7 -10 -15 0 -8 -4 -15 -10 -15 -5 0
-10 9 -10 20 0 16 -7 20 -35 20 -29 0 -35 4 -35 21 0 11 -4 17 -10 14 -6 -4
-10 13 -11 42 -1 39 -3 43 -9 23 -8 -24 -8 -24 -9 6 -1 17 6 45 15 62 15 31
18 32 75 32 l59 0 0 -105z m-6412 40 c6 -3 12 -15 12 -29 0 -13 8 -27 18 -31
29 -12 -26 -23 -109 -21 l-74 1 -3 33 c-5 55 -1 58 74 54 38 -2 75 -5 82 -7z
m2667 -245 c5 -8 11 -7 21 1 8 6 17 9 21 5 3 -3 1 -6 -6 -6 -7 0 -9 -5 -6 -10
4 -6 0 -21 -7 -33 -18 -28 -29 -67 -18 -67 4 0 6 -10 3 -22 -4 -22 -4 -22 8
-3 15 24 30 35 40 29 4 -2 7 -53 8 -114 l2 -110 -28 0 c-15 -1 -45 -3 -66 -6
-28 -4 -38 -2 -43 10 -8 20 4 38 19 29 20 -13 35 -12 41 3 8 20 -4 44 -20 44
-11 0 -13 10 -9 43 4 31 3 37 -4 22 l-10 -20 -2 20 c-1 11 -5 0 -9 -25 -6 -36
-7 -28 -7 40 0 53 3 76 7 60 7 -23 8 -23 9 -3 1 12 -3 24 -8 27 -4 3 -3 21 3
41 7 24 17 35 31 36 13 1 10 4 -10 9 l-30 8 32 1 c17 0 35 -4 38 -9z m117 -50
c10 0 18 -4 18 -10 0 -19 -35 -10 -49 13 -10 17 -11 19 0 10 7 -7 21 -13 31
-13z m-62 -25 c0 -7 -7 -16 -16 -19 -12 -5 -15 -2 -10 10 3 8 6 20 6 25 0 6 5
7 10 4 6 -3 10 -12 10 -20z m35 -5 c3 -6 -1 -7 -9 -4 -18 7 -21 14 -7 14 6 0
13 -4 16 -10z m-138 -196 c-3 -3 -12 -4 -19 -1 -8 3 -5 6 6 6 11 1 17 -2 13
-5z m-1217 -144 c0 -5 8 -10 18 -10 16 -1 16 -2 0 -13 -13 -11 -15 -24 -11
-74 5 -58 5 -60 -19 -65 -25 -5 -25 -4 -26 75 -1 44 1 83 4 88 7 12 34 11 34
-1z m488 -1197 c2 -42 0 -93 -3 -115 -7 -38 -7 -38 -55 -38 -41 0 -49 3 -54
23 -8 30 -8 192 1 200 3 4 29 7 57 7 l51 0 3 -77z m1727 -188 l0 -160 -60 0
-60 0 -3 75 -4 75 -61 30 c-61 29 -62 31 -65 74 -5 73 -7 72 130 69 l123 -3 0
-160z m895 -252 l0 -83 -50 0 c-39 0 -52 4 -60 20 -9 17 -7 20 17 26 60 15 73
32 73 93 0 40 3 52 10 41 5 -8 10 -52 10 -97z m-90 71 c0 -8 -7 -14 -15 -14
-15 0 -21 21 -9 33 10 9 24 -2 24 -19z m-2924 6 l44 0 0 -60 0 -60 -90 0 -90
0 0 66 0 67 46 -7 c26 -3 66 -6 90 -6z m-1326 -79 c8 -6 14 -24 13 -45 -1 -33
2 -37 38 -47 21 -7 39 -16 39 -21 0 -4 -52 -8 -115 -8 l-115 0 0 65 0 65 63 0
c34 0 69 -4 77 -9z m3340 -146 l0 -86 -57 3 -58 3 -3 69 c-2 38 -1 75 2 83 4
9 23 13 61 13 l55 0 0 -85z m360 -180 l0 -75 -75 0 -75 0 0 75 0 75 75 0 75 0
0 -75z m-992 -87 l-3 -103 -70 0 -70 0 -3 103 -3 102 76 0 76 0 -3 -102z
m-2467 39 c-1 -12 -15 -9 -19 4 -3 6 1 10 8 8 6 -3 11 -8 11 -12z"/>
<path d="M5890 8570 l0 -90 45 0 45 0 0 53 c0 28 3 69 6 90 l7 37 -52 0 -51 0
0 -90z"/>
<path d="M10213 8453 c-18 -7 -16 -30 3 -37 23 -9 24 -8 24 19 0 25 -4 28 -27
18z"/>
<path d="M5660 8060 l0 -141 58 3 57 3 3 138 3 137 -61 0 -60 0 0 -140z"/>
<path d="M5440 7893 c0 -16 -3 -44 -6 -63 l-6 -35 -84 3 -84 3 0 -74 0 -74 78
-6 c42 -2 80 -3 85 0 4 2 7 28 7 56 l0 52 116 -3 115 -3 -5 53 c-2 29 -5 68
-5 86 l-1 32 -105 0 -105 0 0 -27z"/>
<path d="M5575 7368 c-11 -18 -24 -40 -30 -50 -8 -15 -18 -17 -52 -12 l-43 6
0 -306 0 -306 90 0 90 0 0 40 c0 28 4 40 15 40 17 0 22 104 17 418 l-3 202
-32 0 c-25 0 -36 -7 -52 -32z"/>
<path d="M3050 7032 l0 -97 43 1 c23 1 59 2 80 3 l37 1 0 95 0 95 -80 0 -80 0
0 -98z"/>
<path d="M2219 6691 c-2 -44 -8 -83 -12 -88 -5 -4 -47 -10 -93 -12 l-84 -3 0
-64 0 -64 -69 0 c-67 0 -68 0 -63 -25 4 -23 1 -25 -33 -25 l-37 0 4 -70 c2
-42 -1 -71 -7 -71 -5 -1 -36 0 -68 1 -31 1 -80 -1 -107 -5 l-50 -7 0 -73 0
-72 -52 -7 c-29 -3 -68 -6 -86 -6 l-34 0 7 -57 c3 -32 8 -102 11 -155 l5 -98
-103 -2 c-57 -1 -132 -2 -168 -2 -36 -1 -98 -2 -137 -4 l-73 -2 0 -85 0 -85
-74 0 -73 0 -7 -77 c-9 -114 -8 -123 12 -121 9 1 50 0 90 0 57 -2 72 -5 72
-17 0 -12 13 -15 55 -15 l55 0 0 35 0 35 -55 0 -55 0 0 75 0 75 83 2 c45 1
145 2 222 3 77 1 159 2 183 3 l42 2 0 90 0 90 75 0 75 0 0 85 c0 84 0 85 -25
85 -16 0 -25 6 -25 15 0 8 9 15 19 15 17 0 20 8 23 48 l3 47 83 3 82 3 0 29
c0 22 5 29 23 32 19 3 22 10 25 60 l3 57 72 3 72 3 3 58 3 57 59 0 60 0 0 55
0 55 59 0 c58 0 59 1 65 31 3 17 6 42 6 55 0 23 3 24 65 24 l65 0 0 80 0 80
-94 0 -94 0 -3 -79z"/>
<path d="M5848 6583 c7 -3 16 -2 19 1 4 3 -2 6 -13 5 -11 0 -14 -3 -6 -6z"/>
<path d="M9940 6580 c-8 -5 -42 -10 -75 -10 l-60 0 3 -175 3 -175 -89 0 -90 0
6 -200 5 -199 -94 -3 -94 -3 -3 -102 -3 -103 -79 0 -80 0 -2 -267 -3 -268 -67
-3 -68 -3 0 -129 0 -130 -59 0 -59 0 2 -87 c2 -49 4 -100 4 -115 l2 -28 205 0
205 0 2 -202 3 -203 93 -3 92 -3 2 -619 c1 -341 3 -655 3 -697 l0 -78 -102 -3
c-98 -3 -103 -2 -103 18 0 15 -7 20 -26 20 l-26 0 4 184 4 185 -23 6 c-21 5
-23 11 -23 64 l0 59 -79 7 c-44 4 -85 4 -90 0 -6 -3 -11 -37 -11 -74 l0 -68
-37 -7 c-21 -3 -90 -6 -154 -6 l-116 0 -7 -37 c-3 -21 -6 -110 -6 -198 l0
-160 100 3 100 3 0 -115 0 -116 -174 0 -174 0 -6 -462 c-4 -255 -6 -489 -4
-520 l3 -58 43 0 c35 0 45 4 49 20 3 11 9 20 14 20 8 0 17 -316 10 -402 l-3
-49 -67 3 -66 3 -5 45 c-4 38 -9 46 -28 48 -17 3 -25 -2 -29 -18 -5 -18 -12
-20 -52 -18 l-46 3 -3 -338 -2 -337 -85 0 -85 0 0 374 0 375 70 7 70 7 -2 506
-3 506 -107 3 -108 3 0 -146 0 -145 -50 0 -50 0 0 -330 0 -330 -80 0 -80 0 0
-210 0 -210 -100 0 -100 0 0 100 0 100 -80 0 -80 0 0 -28 c0 -26 3 -28 30 -24
21 3 30 10 30 23 0 31 27 21 34 -12 9 -49 7 -129 -4 -129 -5 0 -10 17 -10 39
0 35 -3 39 -31 45 -57 11 -58 10 -57 -54 l1 -60 42 0 42 0 6 -112 c6 -121 -8
-268 -27 -280 -6 -4 -46 -8 -88 -8 l-78 0 0 -55 c0 -30 -1 -55 -2 -56 -2 0
-48 -3 -103 -5 -55 -3 -103 -10 -106 -16 -4 -6 -14 -8 -23 -5 -13 5 -16 -1
-16 -28 l0 -34 -102 -3 -103 -3 -3 -53 c-3 -49 -5 -54 -33 -64 -20 -7 -44 -31
-69 -70 -22 -33 -40 -64 -40 -69 0 -5 85 -9 205 -9 176 0 205 2 205 15 0 10
10 15 30 15 25 0 30 -4 30 -25 l0 -25 470 0 470 0 -3 118 -2 117 73 3 c46 2
74 7 77 15 2 7 7 26 11 42 l8 30 5 -35 c5 -30 10 -35 37 -38 48 -5 80 39 83
114 1 32 3 59 4 60 1 2 45 4 97 6 l95 3 5 75 5 75 78 3 77 3 0 74 0 74 73 3
72 3 3 63 3 62 74 0 75 0 0 70 0 69 78 3 77 3 3 52 3 53 75 0 74 0 0 75 c0 52
4 77 13 80 6 2 60 7 120 10 l107 7 0 92 0 93 107 6 c58 4 148 7 200 7 l93 0 0
2228 0 2227 -100 -3 -100 -3 0 85 c0 47 5 88 10 91 6 4 10 92 10 231 l0 224
-29 0 c-17 0 -33 5 -36 10 -8 13 -35 13 -55 0z m-2240 -5610 c0 -5 -2 -10 -4
-10 -3 0 -8 5 -11 10 -3 6 -1 10 4 10 6 0 11 -4 11 -10z"/>
<path d="M6100 6390 l0 -70 95 0 95 0 0 70 0 70 -95 0 -95 0 0 -70z"/>
<path d="M3362 6370 c0 -19 2 -27 5 -17 2 9 2 25 0 35 -3 9 -5 1 -5 -18z"/>
<path d="M5642 6054 l3 -249 115 0 115 0 2 243 2 242 -43 0 c-24 0 -77 3 -120
6 l-76 7 2 -249z"/>
<path d="M985 6090 c-3 -6 -48 -10 -101 -10 l-94 0 0 -50 0 -50 168 0 167 0
-3 60 -4 60 -63 0 c-35 0 -67 -4 -70 -10z"/>
<path d="M460 5714 l0 -94 40 0 c29 0 40 -4 40 -15 0 -19 60 -21 78 -3 8 8 12
45 12 100 l0 88 -42 0 c-24 1 -62 5 -85 9 l-43 8 0 -93z"/>
<path d="M244 5573 l-6 -43 -99 0 -99 0 0 -102 c0 -57 -3 -127 -6 -155 l-7
-53 107 0 106 0 0 -110 c0 -91 3 -110 15 -110 9 0 15 10 15 26 0 27 38 66 54
56 6 -3 36 -7 68 -10 57 -3 58 -3 58 22 0 24 3 26 48 26 49 1 118 8 140 15 6
3 12 18 12 35 l0 30 64 0 65 0 3 48 3 47 103 3 102 3 0 34 0 35 -105 0 c-87 0
-105 3 -105 15 0 11 -11 15 -40 15 -22 0 -40 -4 -40 -10 0 -5 -11 -10 -25 -10
-16 0 -25 6 -25 15 0 12 -13 15 -55 15 l-55 0 0 -50 0 -50 -55 0 -55 0 0 -45
0 -45 -94 0 -93 0 -5 63 c-7 82 2 228 13 221 5 -3 9 -14 9 -25 0 -17 7 -19 69
-19 l69 0 7 59 c11 96 7 101 -80 98 l-74 -2 -7 -42z"/>
<path d="M3338 5603 c7 -3 16 -2 19 1 4 3 -2 6 -13 5 -11 0 -14 -3 -6 -6z"/>
<path d="M3017 5383 c-4 -3 -7 -39 -7 -80 l0 -73 90 0 90 0 0 80 0 80 -83 0
c-46 0 -87 -3 -90 -7z"/>
<path d="M4023 4940 c0 -41 2 -58 4 -37 2 20 2 54 0 75 -2 20 -4 3 -4 -38z"/>
<path d="M676 4913 c-3 -4 -6 -28 -6 -55 l0 -48 55 0 55 0 0 53 0 54 -49 1
c-27 0 -52 -2 -55 -5z"/>
<path d="M540 4750 l0 -40 -42 0 c-23 0 -39 -2 -37 -5 5 -5 43 -13 67 -14 8
-1 12 -17 12 -46 l0 -45 50 0 c32 0 52 5 55 13 2 6 6 49 9 95 l4 82 -59 0 -59
0 0 -40z"/>
<path d="M468 4603 c7 -3 16 -2 19 1 4 3 -2 6 -13 5 -11 0 -14 -3 -6 -6z"/>
<path d="M2670 4221 c0 -27 20 -47 34 -34 12 13 5 51 -10 57 -23 9 -24 8 -24
-23z"/>
<path d="M2761 4198 c1 -37 2 -39 9 -18 12 36 12 60 0 60 -5 0 -10 -19 -9 -42z"/>
<path d="M2640 4077 c0 -7 9 -18 20 -25 17 -10 20 -10 20 3 0 8 5 15 11 15 5
0 7 5 4 10 -9 14 -55 12 -55 -3z"/>
<path d="M7130 4040 l-55 -7 52 -1 c28 -1 55 3 58 8 3 6 5 9 3 8 -2 -1 -28 -4
-58 -8z"/>
<path d="M7180 3999 c0 -5 5 -7 10 -4 6 3 10 8 10 11 0 2 -4 4 -10 4 -5 0 -10
-5 -10 -11z"/>
<path d="M7172 3930 c0 -19 2 -27 5 -17 2 9 2 25 0 35 -3 9 -5 1 -5 -18z"/>
<path d="M7072 3920 c0 -14 2 -19 5 -12 2 6 2 18 0 25 -3 6 -5 1 -5 -13z"/>
<path d="M4290 3876 c0 -8 4 -17 9 -20 5 -4 7 3 4 14 -6 23 -13 26 -13 6z"/>
<path d="M7198 3713 c12 -2 32 -2 45 0 12 2 2 4 -23 4 -25 0 -35 -2 -22 -4z"/>
<path d="M3764 3670 c-5 -21 -12 -30 -25 -30 -16 0 -19 -8 -19 -46 l0 -46 32
6 c18 3 35 11 39 17 4 7 8 5 12 -5 14 -37 27 -13 27 50 0 53 -3 65 -14 61 -8
-3 -17 1 -20 9 -9 24 -26 16 -32 -16z m53 -32 c-3 -8 -6 -5 -6 6 -1 11 2 17 5
13 3 -3 4 -12 1 -19z"/>
<path d="M7198 3693 c12 -2 30 -2 40 0 9 3 -1 5 -23 4 -22 0 -30 -2 -17 -4z"/>
<path d="M3591 3629 c-1 -49 2 -57 22 -66 15 -7 37 -8 58 -3 l34 8 -32 1 c-31
1 -33 3 -33 36 0 28 -4 35 -19 35 -12 0 -21 8 -24 23 -2 12 -5 -3 -6 -34z"/>
<path d="M6117 3284 c-10 -10 -9 -116 2 -132 5 -9 30 -12 87 -10 l79 3 0 70 0
70 -80 3 c-45 1 -84 0 -88 -4z"/>
<path d="M2040 3060 l0 -90 95 0 95 0 0 -240 0 -240 100 0 100 0 0 238 c0 132
-3 280 -6 330 l-7 92 -188 0 -189 0 0 -90z"/>
<path d="M5668 2778 l-3 -213 -97 -3 -98 -3 0 -149 0 -150 -115 0 -114 0 -3
-137 -3 -138 -117 -6 c-65 -4 -125 -9 -133 -13 -13 -5 -15 -39 -15 -226 l0
-220 140 0 140 0 2 173 3 172 93 3 92 3 0 84 0 85 59 0 c32 0 79 3 103 6 l45
6 8 157 c4 86 7 195 6 243 l-2 87 36 7 c19 3 55 3 80 -1 89 -13 85 -23 85 226
l0 219 -95 0 -95 0 -2 -212z"/>
<path d="M8037 2944 c-11 -11 3 -24 26 -24 16 0 18 3 8 9 -11 7 -11 9 0 14 9
3 6 6 -7 6 -11 1 -24 -2 -27 -5z"/>
<path d="M8218 2933 c7 -3 16 -2 19 1 4 3 -2 6 -13 5 -11 0 -14 -3 -6 -6z"/>
<path d="M3268 2923 c12 -2 30 -2 40 0 9 3 -1 5 -23 4 -22 0 -30 -2 -17 -4z"/>
<path d="M8023 2865 c0 -27 2 -38 4 -22 2 15 2 37 0 50 -2 12 -4 0 -4 -28z"/>
<path d="M3356 2849 c-10 -50 -7 -61 12 -57 25 5 36 88 11 88 -11 0 -19 -11
-23 -31z"/>
<path d="M3212 2820 c0 -14 2 -19 5 -12 2 6 2 18 0 25 -3 6 -5 1 -5 -13z"/>
<path d="M8027 2770 c-3 -22 -1 -53 3 -68 6 -21 8 -11 9 41 1 76 -4 87 -12 27z"/>
<path d="M7115 2650 c-8 -13 15 -24 27 -12 6 6 4 11 -6 15 -8 3 -18 2 -21 -3z"/>
<path d="M2520 2471 c0 -28 -6 -67 -14 -86 -8 -18 -13 -53 -11 -76 l3 -42 126
-4 127 -4 -3 53 -3 53 -42 1 c-24 0 -46 4 -50 7 -3 4 -17 7 -30 7 -18 0 -23 5
-23 25 0 22 -4 25 -34 25 -33 0 -34 1 -34 41 -1 23 -3 44 -6 47 -3 3 -6 -18
-6 -47z m217 -173 c-3 -8 -6 -5 -6 6 -1 11 2 17 5 13 3 -3 4 -12 1 -19z"/>
<path d="M1994 2336 c-17 -9 -19 -14 -8 -24 18 -17 21 -15 26 13 3 14 5 25 4
24 0 -1 -10 -6 -22 -13z"/>
<path d="M7020 2311 c0 -5 9 -7 20 -4 11 3 20 7 20 9 0 2 -9 4 -20 4 -11 0
-20 -4 -20 -9z"/>
<path d="M7678 2263 l-118 -4 0 -294 0 -295 120 0 120 0 0 300 c0 165 -1 299
-2 298 -2 -1 -56 -4 -120 -5z"/>
<path d="M1840 2250 c0 -5 7 -10 15 -10 8 0 15 5 15 10 0 6 -7 10 -15 10 -8 0
-15 -4 -15 -10z"/>
<path d="M2627 2133 c-11 -10 -8 -143 3 -143 6 0 10 32 10 75 0 75 -1 81 -13
68z"/>
<path d="M4339 1953 c-1 -212 2 -541 8 -665 l6 -148 63 0 c63 0 64 0 73 -32 6
-24 9 27 10 174 l1 207 53 3 52 3 0 205 0 205 -72 3 -73 3 0 49 0 50 -60 0
-60 0 -1 -57z"/>
<path d="M7190 1565 l0 -105 -65 0 -65 0 0 -135 0 -135 -85 0 -84 0 -3 -152
-3 -153 -87 -3 -88 -3 0 -64 0 -65 -80 0 -79 0 -3 -122 -3 -123 -97 -3 -98 -3
0 -104 0 -105 195 0 c149 0 195 3 196 13 0 6 0 49 -1 95 l-1 82 75 0 76 0 0
65 c0 53 3 63 15 59 8 -4 15 -2 15 2 0 5 31 8 68 6 l69 -4 6 63 c4 34 7 96 7
138 0 53 3 71 10 61 8 -13 10 -12 10 3 0 14 9 17 50 17 l49 0 3 88 3 87 85 3
c65 2 88 6 98 19 7 11 12 51 12 110 l0 93 66 0 65 0 -3 100 c-2 77 0 100 10
100 10 0 12 19 10 78 l-3 77 -72 -3 c-60 -2 -73 1 -73 13 0 12 -17 15 -100 15
l-100 0 0 -105z"/>
<path d="M3209 1573 c-8 -50 -7 -78 1 -91 7 -12 9 -1 10 41 0 31 -2 57 -5 57
-3 0 -6 -3 -6 -7z"/>
<path d="M3070 1444 c0 -8 5 -12 10 -9 6 4 8 11 5 16 -9 14 -15 11 -15 -7z"/>
<path d="M3052 1390 c0 -14 2 -19 5 -12 2 6 2 18 0 25 -3 6 -5 1 -5 -13z"/>
<path d="M3072 1380 c0 -14 2 -19 5 -12 2 6 2 18 0 25 -3 6 -5 1 -5 -13z"/>
<path d="M3070 1336 c0 -9 5 -16 10 -16 6 0 10 4 10 9 0 6 -4 13 -10 16 -5 3
-10 -1 -10 -9z"/>
</g>
</svg>
