<svg xmlns="http://www.w3.org/2000/svg" viewBox="0 0 50 50" width="50px" height="50px"><path d="M 25 8 C 15.611 8 8 15.611 8 25 C 8 34.389 15.611 42 25 42 C 34.389 42 42 34.389 42 25 C 42 15.611 34.389 8 25 8 z M 26.179688 14.791016 C 26.247016 14.778797 26.317922 14.779172 26.388672 14.794922 L 30.556641 15.626953 C 30.823641 15.162953 31.304797 14.849922 31.841797 14.794922 C 32.775797 14.693922 33.611891 15.370688 33.712891 16.304688 C 33.813891 17.238688 33.137125 18.074781 32.203125 18.175781 C 31.269125 18.276781 30.433031 17.601969 30.332031 16.667969 L 26.693359 15.902344 L 25.591797 21.205078 C 27.928797 21.256078 30.201719 21.978875 32.136719 23.296875 C 32.576719 22.877875 33.154672 22.628422 33.763672 22.607422 C 35.136672 22.561422 36.286891 23.631 36.337891 25 C 36.354891 25.955 35.818844 26.834719 34.964844 27.261719 C 34.981844 27.510719 34.980891 27.758812 34.962891 28.007812 C 34.962891 31.819813 30.526688 34.912109 25.054688 34.912109 C 19.582688 34.912109 15.144531 31.814812 15.144531 28.007812 C 15.127531 27.758813 15.127531 27.508766 15.144531 27.259766 C 14.894531 27.149766 14.670563 26.9945 14.476562 26.8125 C 13.474563 25.8745 13.429187 24.301687 14.367188 23.304688 C 15.305188 22.302688 16.876047 22.257313 17.873047 23.195312 C 19.834047 21.868313 22.137906 21.141516 24.503906 21.103516 L 25.759766 15.203125 L 25.759766 15.195312 C 25.807766 14.980062 25.977703 14.827672 26.179688 14.791016 z M 21.044922 25 C 20.106922 25 19.347656 25.759266 19.347656 26.697266 C 19.347656 27.635266 20.106922 28.396484 21.044922 28.396484 C 21.982922 28.396484 22.742188 27.635266 22.742188 26.697266 C 22.742187 25.759266 21.982922 25 21.044922 25 z M 28.910156 25 C 27.972156 25 27.211891 25.759266 27.212891 26.697266 C 27.212891 27.635266 27.972156 28.396484 28.910156 28.396484 C 29.848156 28.396484 30.607422 27.635266 30.607422 26.697266 C 30.607422 25.759266 29.848156 25 28.910156 25 z M 21.167969 30.625 C 21.064969 30.625 20.961453 30.659016 20.876953 30.728516 C 20.682953 30.889516 20.653453 31.182953 20.814453 31.376953 C 22.022453 32.285953 23.500672 32.748547 25.013672 32.685547 C 26.525672 32.748547 28.005844 32.285953 29.214844 31.376953 L 29.214844 31.443359 C 29.399844 31.261359 29.404656 30.957484 29.222656 30.771484 C 29.040656 30.586484 28.736781 30.581672 28.550781 30.763672 C 27.514781 31.502672 26.262094 31.867828 24.996094 31.798828 C 23.728094 31.857828 22.483937 31.476516 21.460938 30.728516 C 21.374438 30.659016 21.270969 30.625 21.167969 30.625 z"/></svg>
