<?xml version="1.0" standalone="no"?>
<!DOCTYPE svg PUBLIC "-//W3C//DTD SVG 1.1//EN" "http://www.w3.org/Graphics/SVG/1.1/DTD/svg11.dtd" >
<svg xmlns="http://www.w3.org/2000/svg" xmlns:xlink="http://www.w3.org/1999/xlink" version="1.1">
<metadata>
Created by FontForge 20170731 at Mon Sep 18 21:28:50 2017
 By Aleksey,,,
Mitch
</metadata>
<defs>
<font id="Bitfantasy" horiz-adv-x="512" >
  <font-face 
    font-family="Bitfantasy"
    font-weight="500"
    font-stretch="normal"
    units-per-em="1024"
    panose-1="2 0 6 3 0 0 0 0 0 0"
    ascent="768"
    descent="-256"
    x-height="384"
    cap-height="512"
    bbox="0 -128 576 682"
    underline-thickness="51"
    underline-position="-203"
    unicode-range="U+0020-00A0"
  />
<missing-glyph horiz-adv-x="374" 
d="M34 0v682h272v-682h-272zM68 34h204v614h-204v-614z" />
    <glyph glyph-name=".notdef" horiz-adv-x="374" 
d="M34 0v682h272v-682h-272zM68 34h204v614h-204v-614z" />
    <glyph glyph-name=".null" horiz-adv-x="0" 
 />
    <glyph glyph-name="nonmarkingreturn" horiz-adv-x="341" 
 />
    <glyph glyph-name="space" unicode=" " horiz-adv-x="320" 
 />
    <glyph glyph-name="exclam" unicode="!" horiz-adv-x="256" 
d="M128 -64h-64v64h-64v64h64h64v-64h64v-64h-64zM64 128h-64v64v64v64v64v64h64h64v-64v-64v-64v-64v-64h-64z" />
    <glyph glyph-name="quotedbl" unicode="&#x22;" horiz-adv-x="384" 
d="M256 320v64h-64v64v64h64h64v-64v-64v-64h-64zM64 320v64h-64v64v64h64h64v-64v-64v-64h-64z" />
    <glyph glyph-name="numbersign" unicode="#" horiz-adv-x="640" 
d="M256 64v64h64v-64h-64zM64 64v64h64v-64h-64zM320 128v64h-64h-64v-64h-64v64h-64v64h64h64v64h-64v64h64h64v64h64v-64h64h64v64h64v-64h64v-64h-64h-64v-64h64v-64h-64h-64v-64h-64zM320 256h64v64h-64h-64v-64h64zM512 448v64h64v-64h-64zM320 448v64h64v-64h-64z" />
    <glyph glyph-name="dollar" unicode="$" 
d="M192 -64v64h-64h-64v64h-64v64h64h64v-64h64v64v64h-64h-64v64h-64v64v64h64v64h64h64v64h64v-64h64h64v-64h64v-64h-64v64h-64h-64v-64v-64h64h64v-64h64v-64v-64h-64v-64h-64h-64v-64h-64zM320 64v64v64h-64v-64v-64h64zM192 256v64v64h-64v-64v-64h64z" />
    <glyph glyph-name="percent" unicode="%" horiz-adv-x="576" 
d="M384 0v64h64v-64h-64zM0 0v64h64v-64h-64zM64 320v64h64v-64h-64zM448 64v64h-64v-64h-64v64h64v64h64h64v-64v-64h-64zM64 64v64h64v-64h-64zM128 128v64h64v-64h-64zM192 192v64h64v-64h-64zM256 256v64h64v-64h-64zM320 320v64h64v-64h-64zM384 384v64h64v-64h-64z
M128 384v64h-64v-64h-64v64h64v64h64h64v-64v-64h-64zM448 448v64h64v-64h-64z" />
    <glyph glyph-name="quotesingle" unicode="'" horiz-adv-x="192" 
d="M64 320v64h-64v64v64h64h64v-64v-64v-64h-64z" />
    <glyph glyph-name="parenleft" unicode="(" horiz-adv-x="320" 
d="M192 -64h-64v64h-64v64h-64v64v64v64v64v64v64h64v64h64h64h64v-64h-64h-64v-64v-64v-64v-64v-64v-64h64v-64h64v-64h-64z" />
    <glyph glyph-name="parenright" unicode=")" horiz-adv-x="320" 
d="M128 -64h-64h-64v64h64h64v64v64v64v64v64v64h-64v64h-64v64h64h64v-64h64v-64h64v-64v-64v-64v-64v-64v-64h-64v-64h-64z" />
    <glyph glyph-name="asterisk" unicode="*" horiz-adv-x="320" 
d="M192 128v64h64v-64h-64zM0 128v64h64v-64h-64zM192 192h-64h-64v64h-64v64h64v64h64h64v-64h64v-64h-64v-64zM192 384v64h64v-64h-64zM64 384h-64v64h64v-64z" />
    <glyph glyph-name="plus" unicode="+" horiz-adv-x="384" 
d="M128 64v64v64h-64h-64v64h64h64v64v64h64v-64v-64h64h64v-64h-64h-64v-64v-64h-64z" />
    <glyph glyph-name="comma" unicode="," horiz-adv-x="256" 
d="M64 -64h-64v64h64v64v64h64h64v-64v-64h-64v-64h-64z" />
    <glyph glyph-name="hyphen" unicode="-" horiz-adv-x="384" 
d="M0 128v64h64v-64h-64zM192 256h64v-64h-64h-64h-64v64h64h64zM256 256v64h64v-64h-64z" />
    <glyph glyph-name="period" unicode="." horiz-adv-x="192" 
d="M64 0h-64v64v64h64h64v-64v-64h-64z" />
    <glyph glyph-name="slash" unicode="/" horiz-adv-x="384" 
d="M0 -64v64v64h64v-64v-64h-64zM64 64v64v64h64v-64v-64h-64zM128 192v64v64h64v-64v-64h-64zM192 320v64v64h64v-64v-64h-64zM256 448v64h64v-64h-64z" />
    <glyph glyph-name="zero" unicode="0" horiz-adv-x="576" 
d="M384 0h-64h-64h-64h-64v64h-64v64h-64v64v64v64v64h64v64h64h64h64h64v-64h64v-64h64v-64h64v-64v-64v-64h-64v-64h-64zM256 64h64v64h-64v64h-64v64h-64v-64v-64h64v-64h64zM384 128v64v64h-64v64h-64v64h-64v-64v-64h64v-64h64v-64h64z" />
    <glyph glyph-name="one" unicode="1" horiz-adv-x="448" 
d="M0 -64v64h64v-64h-64zM0 256v64h64v-64h-64zM256 0h-64h-64h-64v64h64v64v64v64v64h-64v64h64v64h64h64v-64v-64v-64v-64v-64v-64h64v-64h-64zM320 64v64h64v-64h-64z" />
    <glyph glyph-name="two" unicode="2" horiz-adv-x="448" 
d="M0 256v64v64h64v64h64h64h64h64v-64h64v-64v-64h-64v-64h-64h-64v-64h-64v-64h64h64h64v-64h-64h-64h-64h-64h-64v64v64h64v64h64h64v64h64v64v64h-64h-64v-64h-64v-64h-64zM320 64v64h64v-64h-64z" />
    <glyph glyph-name="three" unicode="3" horiz-adv-x="448" 
d="M0 256v64h64v-64h-64zM256 0h-64h-64h-64v64h-64v64v64h64v-64h64v-64h64h64v64v64h-64h-64v64h64h64v64v64h-64h-64v-64h-64v64h64v64h64h64h64v-64h64v-64v-64h-64v-64h64v-64v-64h-64v-64h-64z" />
    <glyph glyph-name="four" unicode="4" 
d="M384 -128h-64v64h-64v64v64h-64h-64h-64h-64v64v64v64h64v64h64v64h64v64h64h64h64v-64v-64v-64v-64v-64h64v-64h-64v-64v-64h64v-64h-64zM192 128h64v64v64v64h-64v-64h-64v-64v-64h64z" />
    <glyph glyph-name="five" unicode="5" horiz-adv-x="448" 
d="M256 0h-64h-64h-64v64h64h64h64v64v64h-64v64h-64h-64h-64v64v64v64h64h64h64h64h64v-64h-64h-64h-64v-64h64h64v-64h64v-64h64v-64v-64h-64v-64h-64zM64 64h-64v64h64v-64z" />
    <glyph glyph-name="six" unicode="6" horiz-adv-x="448" 
d="M256 0h-64h-64h-64v64h-64v64v64v64v64v64h64v64h64h64h64h64v-64h-64h-64h-64v-64h64h64v-64h64v-64h64v-64v-64h-64v-64h-64zM192 64h64v64v64h-64v64h-64v-64v-64v-64h64z" />
    <glyph glyph-name="seven" unicode="7" horiz-adv-x="448" 
d="M0 320v64h64v-64h-64zM192 0h-64v64v64v64h64v64v64h64v64h-64h-64h-64v64h64h64h64h64h64v-64v-64h-64v-64v-64h-64v-64v-64v-64h-64z" />
    <glyph glyph-name="eight" unicode="8" 
d="M320 0h-64h-64h-64v64h-64v64h-64v64h64v64h-64v64v64h64v64h64h64h64h64v-64h64v-64h64v-64h-64v-64h64v-64v-64h-64v-64h-64zM256 64h64v64v64h-64h-64h-64v-64h64v-64h64zM256 256h64v64h-64v64h-64h-64v-64v-64h64h64z" />
    <glyph glyph-name="nine" unicode="9" 
d="M192 0h-64h-64v64h64h64v64h64v64h-64h-64h-64v64h-64v64v64h64v64h64h64h64h64h64v-64h64v-64v-64v-64h-64v-64h-64v-64h-64v-64h-64zM256 256h64v64v64h-64h-64h-64v-64v-64h64h64z" />
    <glyph glyph-name="colon" unicode=":" horiz-adv-x="192" 
d="M64 0h-64v64v64h64h64v-64v-64h-64zM64 192h-64v64v64h64h64v-64v-64h-64z" />
    <glyph glyph-name="semicolon" unicode=";" horiz-adv-x="256" 
d="M128 256v64h-64v64h64h64v-64v-64h-64zM64 0h-64v64h64v64v64h64h64v-64v-64h-64v-64h-64z" />
    <glyph glyph-name="less" unicode="&#x3c;" horiz-adv-x="448" 
d="M320 128h64v-64h-64h-64v64h64zM256 128h-64h-64v64h64h64v-64zM128 192h-64h-64v64h64h64v-64zM192 320h64v-64h-64h-64v64h64zM320 384h64v-64h-64h-64v64h64z" />
    <glyph glyph-name="equal" unicode="=" horiz-adv-x="384" 
d="M0 64v64h64v-64h-64zM0 256v64h64v-64h-64zM192 192h64v-64h-64h-64h-64v64h64h64zM256 192v64h64v-64h-64zM192 384h64v-64h-64h-64h-64v64h64h64zM256 384v64h64v-64h-64z" />
    <glyph glyph-name="greater" unicode="&#x3e;" horiz-adv-x="448" 
d="M64 128h64v-64h-64h-64v64h64zM192 192h64v-64h-64h-64v64h64zM320 256h64v-64h-64h-64v64h64zM256 256h-64h-64v64h64h64v-64zM128 320h-64h-64v64h64h64v-64z" />
    <glyph glyph-name="question" unicode="?" 
d="M192 -64v64h-64v64h64h64v-64v-64h-64zM0 320v64h64v-64h-64zM192 128h-64v64h64v64h64h64v64v64v64h-64h-64v-64h-64h-64v64h64v64h64h64h64h64v-64h64v-64v-64v-64h-64v-64h-64h-64v-64h-64z" />
    <glyph glyph-name="A" unicode="A" 
d="M320 -64h-64v64h64v64v64v64h-64h-64h-64v-64v-64v-64h-64h-64v64v64v64v64v64v64v64h64h64v-64h64v64h64h64h64v-64h64v-64v-64v-64v-64v-64v-64h-64v-64h-64zM256 256h64v64v64h-64h-64v-64h-64v-64h64h64z" />
    <glyph glyph-name="B" unicode="B" 
d="M320 0h-64h-64h-64h-64h-64v64v64v64v64v64v64v64h64h64v-64h64v64h64h64h64v-64h64v-64v-64h-64v-64h64v-64v-64h-64v-64h-64zM256 64h64v64v64h-64h-64h-64v-64v-64h64h64zM256 256h64v64v64h-64h-64v-64h-64v-64h64h64z" />
    <glyph glyph-name="C" unicode="C" 
d="M384 256v64h-64v64h-64h-64h-64v-64v-64v-64v-64h64v-64h64h64v64h64v64h64v-64v-64h-64v-64h-64h-64h-64h-64v64h-64v64h-64v64v64v64v64h64v64h64h64h64h64h64v-64h64v-64v-64h-64z" />
    <glyph glyph-name="D" unicode="D" 
d="M320 0h-64h-64v64h-64v-64h-64h-64v64v64v64v64v64v64v64h64h64v-64h64v64h64h64v-64h64v-64h64v-64v-64v-64v-64h-64v-64h-64zM256 64h64v64v64v64v64h-64v64h-64v-64h-64v-64v-64v-64h64v-64h64z" />
    <glyph glyph-name="E" unicode="E" horiz-adv-x="448" 
d="M320 64h64v-64h-64h-64h-64h-64h-64h-64v64v64v64v64v64v64v64h64h64v-64h64v-64h-64v-64h64h64h64v-64h-64h-64h-64v-64v-64h64h64h64zM320 448h64v-64h-64h-64h-64v64h64h64z" />
    <glyph glyph-name="F" unicode="F" horiz-adv-x="448" 
d="M64 0h-64v64v64v64v64v64v64v64h64h64v-64h64v-64h-64v-64h64h64h64v-64h-64h-64h-64v-64v-64v-64h-64zM320 448h64v-64h-64h-64h-64v64h64h64z" />
    <glyph glyph-name="G" unicode="G" 
d="M320 0h-64h-64h-64v64h-64v64h-64v64v64v64v64h64v64h64h64h64h64h64v-64h64v-64h-64h-64v64h-64h-64h-64v-64v-64v-64v-64h64v-64h64h64v64v64h-64v64h64h64h64v-64v-64v-64h-64v-64h-64z" />
    <glyph glyph-name="H" unicode="H" 
d="M320 -64h-64v64h64v64v64v64v64h-64h-64v-64h-64v-64v-64v-64h-64h-64v64v64v64v64v64v64v64h64h64v-64v-64v-64h64v64h64h64v64v64h64h64v-64v-64v-64v-64v-64v-64v-64h-64v-64h-64z" />
    <glyph glyph-name="I" unicode="I" horiz-adv-x="320" 
d="M192 0h-64h-64h-64v64h64v64v64v64v64v64h-64v64h64h64h64v-64v-64v-64v-64v-64v-64h64v-64h-64zM192 448v64h64v-64h-64z" />
    <glyph glyph-name="J" unicode="J" 
d="M384 0h-64h-64h-64h-64h-64v64h-64v64v64h64v-64h64v-64h64h64h64v64v64v64v64v64h-64v64h64h64v-64h64v-64v-64v-64v-64v-64v-64h-64z" />
    <glyph glyph-name="K" unicode="K" 
d="M320 -64h-64v64h64v64v64h-64v64h-64h-64v-64v-64v-64h-64h-64v64v64v64v64v64v64v64h64h64v-64v-64v-64h64h64v64h64v64v64h64h64v-64v-64h-64v-64h-64v-64h64v-64h64v-64v-64h-64v-64h-64z" />
    <glyph glyph-name="L" unicode="L" horiz-adv-x="448" 
d="M320 64h64v-64h-64h-64h-64v64h64h64zM64 0h-64v64v64v64v64v64v64v64h64h64v-64v-64v-64v-64v-64h64v-64h-64v-64h-64z" />
    <glyph glyph-name="M" unicode="M" horiz-adv-x="640" 
d="M256 128v64h-64v64h-64v-64v-64v-64v-64h-64h-64v64v64v64v64v64v64v64h64h64v-64h64v-64h64v-64h64v64h64v64h64v64h64v-64h64v-64v-64v-64v-64v-64v-64h-64v-64h-64h-64v64h64v64v64v64v64h-64v-64h-64v-64h-64z" />
    <glyph glyph-name="N" unicode="N" horiz-adv-x="576" 
d="M448 0h-64v64h-64v64h-64v64h-64v64h-64v-64v-64v-64h64v-64h-64h-64v64h-64v64v64v64v64v64v64h64h64v-64h64v-64h64v-64h64v-64h64v64v64v64h-64v64h64h64v-64h64v-64v-64v-64v-64v-64v-64h-64z" />
    <glyph glyph-name="O" unicode="O" 
d="M320 0h-64h-64h-64v64h-64v64h-64v64v64v64v64h64v64h64h64h64h64v-64h64v-64h64v-64v-64v-64v-64h-64v-64h-64zM256 64h64v64v64v64v64h-64v64h-64h-64v-64v-64v-64v-64h64v-64h64z" />
    <glyph glyph-name="P" unicode="P" 
d="M64 0h-64v64v64v64v64v64v64v64h64h64v-64h64v64h64h64h64v-64h64v-64v-64h-64v-64h-64h-64h-64h-64v-64v-64v-64h-64zM256 256h64v64v64h-64h-64v-64h-64v-64h64h64z" />
    <glyph glyph-name="Q" unicode="Q" 
d="M384 -64h-64v64h-64h-64h-64v64h-64v64h-64v64v64v64v64h64v64h64h64h64h64v-64h64v-64h64v-64v-64v-64v-64h-64v-64h64v-64h-64zM256 64v64h64v64v64v64h-64v64h-64h-64v-64v-64v-64v-64h64v-64h64z" />
    <glyph glyph-name="R" unicode="R" 
d="M320 -64h-64v64h64v64v64v64h-64h-64h-64v-64v-64v-64h-64h-64v64v64v64v64v64v64v64h64h64v-64h64v64h64h64h64v-64h64v-64v-64h-64v-64h64v-64v-64v-64h-64v-64h-64zM256 256h64v64v64h-64h-64v-64h-64v-64h64h64z" />
    <glyph glyph-name="S" unicode="S" 
d="M320 320v64h64v-64h-64zM320 0h-64h-64h-64h-64v64h-64v64h64h64v-64h64h64h64v64h-64v64h-64h-64h-64v64h-64v64v64h64v64h64h64h64h64v-64h-64h-64h-64v-64v-64h64h64h64h64v-64h64v-64v-64h-64v-64h-64z" />
    <glyph glyph-name="T" unicode="T" horiz-adv-x="576" 
d="M448 320v64h64v-64h-64zM0 320v64h64v-64h-64zM256 0h-64v64v64v64v64v64v64h-64h-64v64h64h64h64h64h64h64v-64h-64h-64v-64v-64v-64v-64v-64v-64h-64z" />
    <glyph glyph-name="U" unicode="U" 
d="M384 0h-64v64h-64v-64h-64h-64h-64v64h-64v64v64v64v64v64h64v64h64h64v-64h-64v-64v-64v-64v-64v-64h64h64v64h64v64v64v64v64v64h64h64v-64v-64v-64v-64v-64v-64v-64h-64z" />
    <glyph glyph-name="V" unicode="V" horiz-adv-x="576" 
d="M256 0h-64v64h-64v64h-64v64h-64v64v64v64h64v64h64h64v-64h-64v-64v-64v-64h64v-64h64h64v64h64v64v64v64h-64v64h64h64v-64h64v-64v-64v-64h-64v-64h-64v-64h-64v-64h-64z" />
    <glyph glyph-name="W" unicode="W" horiz-adv-x="640" 
d="M384 0h-64v64h64v64h64v64v64v64v64h-64v64h64h64v-64h64v-64v-64v-64v-64h-64v-64h-64v-64h-64zM192 0h-64v64h-64v64h-64v64v64v64v64h64v64h64h64v-64h-64v-64v-64v-64v-64h64v-64h64v-64h-64zM320 64h-64v64v64h64v-64v-64z" />
    <glyph glyph-name="X" unicode="X" 
d="M320 -64h-64v64h64v64v64h-64v64h-64v-64h-64v-64v-64h-64h-64v64v64h64v64h64v64h-64v64h-64v64v64h64h64v-64v-64h64v-64h64v64h64v64v64h64h64v-64v-64h-64v-64h-64v-64h64v-64h64v-64v-64h-64v-64h-64z" />
    <glyph glyph-name="Y" unicode="Y" 
d="M256 -64h-64h-64h-64v64h-64v64h64h64v-64h64h64v64h64v64v64v64h-64v-64h-64h-64h-64v64h-64v64v64h64v64h64h64v-64h-64v-64v-64h64h64v64h64v64v64h64h64v-64v-64v-64v-64v-64v-64h-64v-64h-64v-64h-64z" />
    <glyph glyph-name="Z" unicode="Z" 
d="M0 320v64h64v-64h-64zM320 64h64v-64h-64h-64h-64h-64h-64h-64v64v64h64v64h64v64h64v64h64v64h-64h-64h-64v64h64h64h64h64h64h64v-64h-64v-64h-64v-64h-64v-64h-64v-64h-64v-64h64h64h64zM384 64v64h64v-64h-64z" />
    <glyph glyph-name="underscore" unicode="_" horiz-adv-x="448" 
d="M0 -64v64h64v-64h-64zM320 64h64v-64h-64h-64h-64h-64h-64v64h64h64h64h64z" />
    <glyph glyph-name="grave" unicode="`" horiz-adv-x="256" 
d="M128 320h-64v64h-64v64v64h64v-64h64v-64h64v-64h-64z" />
    <glyph glyph-name="a" unicode="a" 
d="M384 0h-64v64h-64v64h64v64h-64h-64h-64v-64v-64h64h64v-64h-64h-64h-64v64h-64v64v64h64v64h64h64h64h64v64h-64h-64h-64h-64v64h64h64h64h64h64v-64h64v-64v-64v-64v-64v-64h-64z" />
    <glyph glyph-name="b" unicode="b" 
d="M320 0h-64h-64v64h-64v-64h-64h-64v64v64v64v64v64v64h64v64h64h64v-64h-64v-64h64h64h64h64v-64h64v-64v-64v-64h-64v-64h-64zM256 64h64v64v64v64h-64h-64h-64v-64v-64h64v-64h64z" />
    <glyph glyph-name="c" unicode="c" 
d="M320 0h-64h-64h-64v64h-64v64h-64v64v64v64h64v64h64h64h64h64h64v-64h64v-64h-64h-64v64h-64h-64h-64v-64v-64v-64h64v-64h64h64v64h64h64v-64h-64v-64h-64z" />
    <glyph glyph-name="d" unicode="d" 
d="M384 0h-64v64h-64v64h64v64v64h-64h-64h-64v-64v-64h64v-64h64v-64h-64h-64v64h-64v64h-64v64v64h64v64h64h64h64h64v64h-64v64h64h64v-64h64v-64v-64v-64v-64v-64v-64h-64z" />
    <glyph glyph-name="e" unicode="e" 
d="M256 64h64v-64h-64h-64h-64v64h-64v64h-64v64v64v64h64v64h64h64h64h64h64v-64h64v-64h-64v-64h-64h-64h-64h-64v-64h64v-64h64zM256 256h64v64h-64h-64h-64v-64h64h64z" />
    <glyph glyph-name="f" unicode="f" horiz-adv-x="384" 
d="M64 -64h-64v64h64v64v64v64h-64v64h64v64v64h64v64h64h64h64v-64h-64h-64v-64v-64h64h64v-64h-64h-64v-64v-64v-64h-64v-64h-64z" />
    <glyph glyph-name="g" unicode="g" 
d="M256 -64h64v-64h-64h-64h-64v64h64h64zM320 -64v64h-64h-64h-64v64h-64v64h-64v64v64v64h64v64h64h64h64v-64h-64h-64v-64v-64v-64h64v-64h64h64v64v64v64h-64v64h64v64h64h64v-64v-64v-64v-64v-64v-64v-64h-64h-64z" />
    <glyph glyph-name="h" unicode="h" 
d="M320 -64h-64v64h64v64v64v64v64v64h-64h-64v-64h-64v-64v-64v-64v-64h-64h-64v64v64v64v64v64v64v64h64h64v-64v-64h64v64h64h64h64v-64h64v-64v-64v-64v-64v-64h-64v-64h-64z" />
    <glyph glyph-name="i" unicode="i" horiz-adv-x="256" 
d="M64 0h-64v64h64v64v64v64v64h-64v64h64h64h64v-64v-64v-64v-64v-64h-64v-64h-64zM128 512h64v-64h-64h-64v64h64z" />
    <glyph glyph-name="j" unicode="j" horiz-adv-x="384" 
d="M192 -64h-64h-64v64h64h64v64v64v64v64v64h-64v64h64h64h64v-64v-64v-64v-64v-64v-64h-64v-64h-64zM64 0h-64v64h64v-64zM256 512h64v-64h-64h-64v64h64z" />
    <glyph glyph-name="k" unicode="k" 
d="M320 -64h-64v64h64v64v64h-64v64h-64h-64v-64v-64v-64h-64h-64v64v64v64v64v64v64v64h64h64v-64v-64v-64h64h64v64h64v64h64v-64v-64h-64v-64h64v-64h64v-64v-64h-64v-64h-64z" />
    <glyph glyph-name="l" unicode="l" horiz-adv-x="320" 
d="M192 0h-64v64h-64v64v64v64v64v64h-64v64h64h64v-64h64v-64v-64v-64v-64v-64h64v-64h-64z" />
    <glyph glyph-name="m" unicode="m" 
d="M192 128v64v64h-64v-64v-64v-64v-64h-64h-64v64v64v64v64v64h64v64h64h64v-64h64v64h64h64v-64h64v-64v-64v-64v-64v-64h-64v-64h-64h-64v64h64v64v64v64v64h-64v-64v-64h-64z" />
    <glyph glyph-name="n" unicode="n" 
d="M320 -64h-64v64h64v64v64v64v64h-64v64h-64v-64h-64v-64v-64v-64v-64h-64h-64v64v64v64v64v64v64h64h64v-64h64v64h64h64v-64h64v-64h64v-64v-64v-64v-64h-64v-64h-64z" />
    <glyph glyph-name="o" unicode="o" 
d="M320 0h-64h-64h-64v64h-64v64h-64v64v64v64h64v64h64h64h64h64v-64h64v-64h64v-64v-64v-64h-64v-64h-64zM256 64h64v64v64v64h-64v64h-64h-64v-64v-64v-64h64v-64h64z" />
    <glyph glyph-name="p" unicode="p" 
d="M64 -128h-64v64v64v64v64v64v64v64v64h64h64v-64h64v64h64h64v-64h64v-64h64v-64v-64v-64h-64v-64h-64h-64h-64h-64v-64v-64h-64zM256 64h64v64v64v64h-64v64h-64v-64h-64v-64v-64v-64h64h64z" />
    <glyph glyph-name="q" unicode="q" horiz-adv-x="576" 
d="M448 -128h-64v64h-64v64h-64h-64h-64v64h-64v64h-64v64v64v64h64v64h64h64h64v-64h-64h-64v-64v-64v-64h64v-64h64h64v64v64v64h-64v64h64v64h64h64v-64v-64v-64v-64v-64v-64v-64h64v-64h-64z" />
    <glyph glyph-name="r" unicode="r" horiz-adv-x="448" 
d="M64 0h-64v64v64v64v64v64v64h64h64v-64h64v-64h-64v-64v-64v-64v-64h-64zM320 256h-64v64h-64v64h64h64v-64h64v-64h-64z" />
    <glyph glyph-name="s" unicode="s" horiz-adv-x="448" 
d="M256 0h-64h-64h-64v64h-64v64h64h64v-64h64h64v64v64h-64h-64h-64v64h-64v64h64v64h64h64h64h64v-64h-64h-64h-64v-64h64h64h64v-64h64v-64v-64h-64v-64h-64z" />
    <glyph glyph-name="t" unicode="t" horiz-adv-x="448" 
d="M256 64h64v-64h-64h-64h-64v64h-64v64v64v64h-64v64h64v64v64h64h64v-64v-64h64h64v-64h-64h-64v-64v-64v-64h64zM320 64v64h64v-64h-64z" />
    <glyph glyph-name="u" unicode="u" 
d="M384 0h-64v64h-64v-64h-64h-64h-64v64h-64v64v64v64v64h64v64h64h64v-64h-64v-64v-64v-64v-64h64h64v64h64v64v64v64v64h64h64v-64v-64v-64v-64v-64v-64h-64z" />
    <glyph glyph-name="v" unicode="v" 
d="M192 0v64h-64v64h-64v64h-64v64v64h64v64h64h64v-64h-64v-64v-64h64v-64h64v64h64v64v64h-64v64h64h64v-64h64v-64v-64h-64v-64h-64v-64h-64v-64h-64z" />
    <glyph glyph-name="w" unicode="w" 
d="M256 0v64h-64v-64h-64v64h-64v64h-64v64v64v64h64v64h64h64v-64h-64v-64v-64v-64h64v64v64h64v-64v-64h64v64v64v64h-64v64h64h64v-64h64v-64v-64v-64h-64v-64h-64v-64h-64z" />
    <glyph glyph-name="x" unicode="x" 
d="M320 -64h-64v64h64v64v64h-64v64h-64v-64h-64v-64v-64h-64h-64v64v64h64v64h64v64h-64v64h-64v64h64h64v-64h64v-64h64v64h64v64h64h64v-64h-64v-64h-64v-64h64v-64h64v-64v-64h-64v-64h-64z" />
    <glyph glyph-name="y" unicode="y" 
d="M320 -128h-64h-64h-64v64h64h64h64v64v64h-64v-64h-64h-64h-64v64h-64v64v64v64v64h64v64h64h64v-64h-64v-64v-64v-64v-64h64h64v64h64v64v64v64v64h64h64v-64v-64v-64v-64v-64v-64v-64h-64v-64h-64z" />
    <glyph glyph-name="z" unicode="z" 
d="M0 256v64h64v-64h-64zM320 64h64v-64h-64h-64h-64h-64h-64h-64v64h64v64h64v64h64v64h64v64h-64h-64h-64v64h64h64h64h64h64h64v-64h-64v-64h-64v-64h-64v-64h-64v-64h64h64zM384 64v64h64v-64h-64z" />
    <glyph glyph-name="uni00A0" unicode="&#xa0;" horiz-adv-x="320" 
 />
  </font>
</defs>
</svg>
